<svg width="26" height="24" viewBox="0 0 26 24" fill="none" xmlns="http://www.w3.org/2000/svg">
<g clip-path="url(#clip0)">
<path fill-rule="evenodd" clip-rule="evenodd" d="M4.4752 8.55124C4.43072 8.00175 4.40978 7.48888 4.39932 7.03097C4.35483 4.80681 4.60603 3.31531 4.6165 3.25251L4.81537 2.08548L5.77568 2.77889C5.82801 2.81553 7.05261 3.70519 8.58074 5.3249C8.75867 5.5133 8.94707 5.7174 9.1407 5.9372L9.09884 6.07065C8.56242 7.81858 8.22487 9.62669 8.12544 11.4845C7.31428 10.6786 6.4848 9.98517 5.69456 9.39904C5.27328 9.08766 4.86508 8.80506 4.4752 8.55124ZM20.8189 8.55124C20.8633 8.00175 20.8843 7.48888 20.8947 7.03097C20.9392 4.80681 20.688 3.31531 20.6776 3.25251L20.4787 2.08548L19.5184 2.77889C19.466 2.81553 18.2414 3.70519 16.7133 5.3249C16.5354 5.5133 16.347 5.7174 16.1534 5.9372L16.1952 6.07327C16.7316 7.8212 17.0692 9.62931 17.1686 11.4871C17.9798 10.6812 18.8093 9.98779 19.5995 9.40166C20.0208 9.09028 20.429 8.80768 20.8189 8.55386V8.55124Z" fill="white"/>
<path fill-rule="evenodd" clip-rule="evenodd" d="M12.6473 23.9857C6.74149 24.2683 0.835691 19.3306 0.082093 8.21243L0.000976562 7.02971L1.09997 7.47715C1.29361 7.55565 5.49596 9.29835 8.77725 13.1762C8.77202 12.9957 8.7694 12.8125 8.7694 12.6294C8.7694 8.07113 10.2635 3.82168 12.6499 -0.00387573C15.0363 3.81906 16.5304 8.07113 16.5304 12.6294C16.5304 12.8125 16.5278 12.9957 16.5226 13.1762C19.8039 9.29835 24.0062 7.55565 24.1998 7.47715L25.2988 7.02971L25.2177 8.21243C24.4641 19.3306 18.5583 24.2683 12.6525 23.9857H12.6473ZM11.3468 19.0768C11.0459 19.0768 10.9229 19.1946 10.9229 19.4824C10.9229 20.1837 11.6974 20.7515 12.6473 20.7515C13.5998 20.7515 14.3717 20.1837 14.3717 19.4824C14.3717 19.1946 14.2487 19.0794 13.9478 19.0794C13.7882 19.0847 13.6259 19.1004 13.4689 19.1291L13.4532 19.1318C13.1863 19.1762 12.9168 19.1998 12.6473 19.205C12.3778 19.1998 12.1056 19.1762 11.8387 19.1318C11.6765 19.103 11.509 19.0873 11.3442 19.0794L11.3468 19.0768ZM8.24607 16.2796C9.01275 16.2796 9.6329 16.8997 9.6329 17.6664C9.6329 18.4331 9.01275 19.0533 8.24607 19.0533C7.47939 19.0533 6.85924 18.4331 6.85924 17.6664C6.85924 16.8997 7.47939 16.2796 8.24607 16.2796ZM17.0459 16.2796C17.8126 16.2796 18.4327 16.8997 18.4327 17.6664C18.4327 18.4331 17.8126 19.0533 17.0459 19.0533C16.2792 19.0533 15.6591 18.4331 15.6591 17.6664C15.6591 16.8997 16.2792 16.2796 17.0459 16.2796Z" fill="white"/>
</g>
<defs>
<clipPath id="clip0">
<rect width="25.2939" height="24" fill="white"/>
</clipPath>
</defs>
</svg>
