<svg width="72" height="68" viewBox="0 0 72 68" fill="none" xmlns="http://www.w3.org/2000/svg">
<path fill-rule="evenodd" clip-rule="evenodd" d="M35.6648 66.6448L35.0281 66.1433C33.4982 64.9615 30.9642 63.0841 29.9828 62.0409C26.0094 57.825 20.491 51.7318 16.9454 43.0556C13.4024 34.3795 12.5191 25.6529 12.4059 19.8621C12.3052 14.7743 12.7506 10.7601 13.5836 5.89154L16.2937 7.84954C16.4396 7.95537 19.8972 10.4678 24.2027 15.0389C27.6401 18.6853 32.2023 24.2972 35.6648 31.3631C39.1273 24.2972 43.6895 18.6853 47.1269 15.0389C51.4324 10.4703 54.8899 7.95537 55.0359 7.84954L57.746 5.89154C58.5764 10.7601 59.0244 14.7743 58.9237 19.8621C58.8105 25.6554 57.9272 34.3795 54.3841 43.0582C50.8386 51.7343 45.3201 57.8275 41.3468 62.0434C40.3654 63.0867 37.8289 64.964 36.3014 66.1459L35.6648 66.6448Z" fill="#019D8B"/>
<path fill-rule="evenodd" clip-rule="evenodd" d="M0.231507 23.1986L0 19.8622L3.09766 21.1247C3.6412 21.3439 15.4959 26.2679 24.7486 37.217C24.7335 36.7055 24.7234 36.1939 24.7234 35.6748C24.7234 22.8004 28.9359 10.798 35.6647 0C42.3935 10.798 46.6059 22.8004 46.6059 35.6748C46.6059 36.1939 46.5958 36.7055 46.5807 37.217C55.8335 26.2679 67.6881 21.3464 68.2317 21.1247L71.3293 19.8622L71.0978 23.1986C67.059 82.9338 4.2703 82.9338 0.231507 23.1986Z" fill="url(#paint0_linear)"/>
<path fill-rule="evenodd" clip-rule="evenodd" d="M31.9957 53.5992C31.1452 53.5992 30.803 53.9293 30.803 54.7407C30.803 56.7189 32.9872 58.3241 35.6697 58.3241C38.3521 58.3241 40.5288 56.7164 40.5288 54.7407C40.5288 53.9293 40.1841 53.5992 39.336 53.5992C38.8856 53.6143 38.4301 53.6622 37.9847 53.7353L37.942 53.7428C37.1921 53.8663 36.4246 53.9369 35.6671 53.9495C34.9097 53.9369 34.1397 53.8663 33.3898 53.7428C32.9293 53.6647 32.4613 53.6143 31.9957 53.5992Z" fill="#019D8B"/>
<path d="M23.2514 53.8185C25.4124 53.8185 27.1643 52.0641 27.1643 49.9C27.1643 47.7358 25.4124 45.9814 23.2514 45.9814C21.0903 45.9814 19.3384 47.7358 19.3384 49.9C19.3384 52.0641 21.0903 53.8185 23.2514 53.8185Z" fill="#019D8B"/>
<path d="M48.0726 53.8185C50.2337 53.8185 51.9856 52.0641 51.9856 49.9C51.9856 47.7358 50.2337 45.9814 48.0726 45.9814C45.9116 45.9814 44.1597 47.7358 44.1597 49.9C44.1597 52.0641 45.9116 53.8185 48.0726 53.8185Z" fill="#019D8B"/>
<defs>
<linearGradient id="paint0_linear" x1="35.6647" y1="-6.8" x2="35.6647" y2="68" gradientUnits="userSpaceOnUse">
<stop stop-color="#00B59C"/>
<stop offset="1" stop-color="#8EF8AB"/>
</linearGradient>
</defs>
</svg>
