<svg width="18" height="18" viewBox="0 0 18 18" fill="none" xmlns="http://www.w3.org/2000/svg">
<path d="M9 0C4.02944 0 0 4.02944 0 9C0 13.9706 4.02944 18 9 18C13.9706 18 18 13.9706 18 9C18 8.37626 17.9364 7.76646 17.8151 7.17711C17.7384 6.80461 17.4152 6.53406 17.035 6.52417C16.6548 6.51428 16.3179 6.76766 16.222 7.13568C15.7303 9.02191 14.0142 10.4132 11.9752 10.4132C9.55152 10.4132 7.5868 8.44848 7.5868 6.0248C7.5868 3.98582 8.97808 2.26975 10.8643 1.77797C11.2323 1.68203 11.4857 1.34515 11.4758 0.964965C11.4659 0.58478 11.1954 0.261543 10.8229 0.184873C10.2335 0.0635734 9.62374 0 9 0Z" fill="#007C6E"/>
<path fill-rule="evenodd" clip-rule="evenodd" d="M7.73536 1.74454C4.27111 2.34414 1.63636 5.36438 1.63636 9C1.63636 13.0668 4.93317 16.3636 9 16.3636C12.6356 16.3636 15.6559 13.7289 16.2555 10.2646C15.1639 11.3667 13.6497 12.0496 11.9752 12.0496C8.64779 12.0496 5.95043 9.35221 5.95043 6.0248C5.95043 4.35034 6.63325 2.83611 7.73536 1.74454ZM0 9C0 4.02944 4.02944 0 9 0C9.62374 0 10.2335 0.0635734 10.8229 0.184873C11.1954 0.261543 11.4659 0.58478 11.4758 0.964965C11.4857 1.34515 11.2323 1.68203 10.8643 1.77797C8.97808 2.26975 7.5868 3.98582 7.5868 6.0248C7.5868 8.44848 9.55152 10.4132 11.9752 10.4132C14.0142 10.4132 15.7303 9.02191 16.222 7.13568C16.3179 6.76766 16.6548 6.51428 17.035 6.52417C17.4152 6.53406 17.7384 6.80461 17.8151 7.17711C17.9364 7.76647 18 8.37626 18 9C18 13.9706 13.9706 18 9 18C4.02944 18 0 13.9706 0 9Z" fill="url(#paint0_linear)"/>
<defs>
<linearGradient id="paint0_linear" x1="0" y1="0" x2="18.1649" y2="0.167944" gradientUnits="userSpaceOnUse">
<stop stop-color="#9BEFD7"/>
<stop offset="0.473958" stop-color="#8BF7AB"/>
<stop offset="1" stop-color="#FFD465"/>
</linearGradient>
</defs>
</svg>
