<?xml version="1.0" encoding="utf-8"?>
<!-- Generator: Adobe Illustrator 25.1.0, SVG Export Plug-In . SVG Version: 6.00 Build 0)  -->
<svg version="1.1" id="Layer_1" xmlns:xodm="http://www.corel.com/coreldraw/odm/2003"
	 xmlns="http://www.w3.org/2000/svg" xmlns:xlink="http://www.w3.org/1999/xlink" x="0px" y="0px" viewBox="0 0 1091.2 547"
	 style="enable-background:new 0 0 1091.2 547;" xml:space="preserve">
<style type="text/css">
	.st0{fill-rule:evenodd;clip-rule:evenodd;fill:url(#SVGID_1_);fill-opacity:6.274500e-02;}
	.st1{fill-rule:evenodd;clip-rule:evenodd;fill:url(#SVGID_2_);fill-opacity:6.274500e-02;}
	.st2{fill-rule:evenodd;clip-rule:evenodd;fill:url(#SVGID_3_);fill-opacity:6.274500e-02;}
	.st3{fill-rule:evenodd;clip-rule:evenodd;fill:url(#SVGID_4_);fill-opacity:6.274500e-02;}
	.st4{fill-rule:evenodd;clip-rule:evenodd;fill:url(#SVGID_5_);fill-opacity:6.274500e-02;}
	.st5{fill-rule:evenodd;clip-rule:evenodd;fill:url(#SVGID_6_);fill-opacity:6.274500e-02;}
	.st6{fill-rule:evenodd;clip-rule:evenodd;fill:url(#SVGID_7_);fill-opacity:6.274500e-02;}
	.st7{fill-rule:evenodd;clip-rule:evenodd;fill:url(#SVGID_8_);fill-opacity:6.274500e-02;}
	.st8{fill-rule:evenodd;clip-rule:evenodd;fill:url(#SVGID_9_);fill-opacity:6.274500e-02;}
	.st9{fill-rule:evenodd;clip-rule:evenodd;fill:url(#SVGID_10_);fill-opacity:6.274500e-02;}
	.st10{fill-rule:evenodd;clip-rule:evenodd;fill:url(#SVGID_11_);fill-opacity:6.274500e-02;}
	.st11{fill-rule:evenodd;clip-rule:evenodd;fill:url(#SVGID_12_);fill-opacity:6.274500e-02;}
	.st12{fill-rule:evenodd;clip-rule:evenodd;fill:url(#SVGID_13_);fill-opacity:6.274500e-02;}
	.st13{fill-rule:evenodd;clip-rule:evenodd;fill:url(#SVGID_14_);fill-opacity:6.274500e-02;}
	.st14{fill-rule:evenodd;clip-rule:evenodd;fill:url(#SVGID_15_);fill-opacity:6.274500e-02;}
	.st15{fill-rule:evenodd;clip-rule:evenodd;fill:url(#SVGID_16_);fill-opacity:6.274500e-02;}
	.st16{fill-rule:evenodd;clip-rule:evenodd;fill:url(#SVGID_17_);fill-opacity:6.274500e-02;}
	.st17{fill-rule:evenodd;clip-rule:evenodd;fill:url(#SVGID_18_);fill-opacity:6.274500e-02;}
	.st18{fill-rule:evenodd;clip-rule:evenodd;fill:url(#SVGID_19_);fill-opacity:6.274500e-02;}
	.st19{fill-rule:evenodd;clip-rule:evenodd;fill:url(#SVGID_20_);fill-opacity:6.274500e-02;}
	.st20{fill-rule:evenodd;clip-rule:evenodd;fill:url(#SVGID_21_);fill-opacity:6.274500e-02;}
	.st21{fill-rule:evenodd;clip-rule:evenodd;fill:url(#SVGID_22_);fill-opacity:6.274500e-02;}
	.st22{fill-rule:evenodd;clip-rule:evenodd;fill:url(#SVGID_23_);fill-opacity:6.274500e-02;}
	.st23{fill-rule:evenodd;clip-rule:evenodd;fill:url(#SVGID_24_);fill-opacity:6.274500e-02;}
	.st24{fill-rule:evenodd;clip-rule:evenodd;fill:url(#SVGID_25_);fill-opacity:6.274500e-02;}
	.st25{fill-rule:evenodd;clip-rule:evenodd;fill:url(#SVGID_26_);fill-opacity:6.274500e-02;}
	.st26{fill-rule:evenodd;clip-rule:evenodd;fill:url(#SVGID_27_);fill-opacity:6.274500e-02;}
	.st27{fill-rule:evenodd;clip-rule:evenodd;fill:url(#SVGID_28_);fill-opacity:6.274500e-02;}
	.st28{fill-rule:evenodd;clip-rule:evenodd;fill:url(#SVGID_29_);fill-opacity:6.274500e-02;}
</style>
<g id="Layer_x0020_1">
	
		<linearGradient id="SVGID_1_" gradientUnits="userSpaceOnUse" x1="8224.168" y1="-13046.1006" x2="18254.2969" y2="-13113.9609" gradientTransform="matrix(3.308625e-02 0 0 -3.308625e-02 239.7955 -124.0087)">
		<stop  offset="0" style="stop-color:#9BEFD7"/>
		<stop  offset="0.4706" style="stop-color:#8BF7AB"/>
		<stop  offset="1" style="stop-color:#FFD465"/>
	</linearGradient>
	<path class="st0" d="M812.7,70.5C702.8,70,596.1,127.4,538.2,230.1c-57.5,102.2-51.5,223.2,5.3,316.9h20.1
		c102.8-6,200.3-62.5,254.7-159C876.2,285.3,870,164.4,812.7,70.5L812.7,70.5z"/>
	
		<linearGradient id="SVGID_2_" gradientUnits="userSpaceOnUse" x1="7311.8926" y1="-12450.2832" x2="16518.9805" y2="-12518.2832" gradientTransform="matrix(3.308625e-02 0 0 -3.308625e-02 239.7955 -124.0087)">
		<stop  offset="0" style="stop-color:#9BEFD7"/>
		<stop  offset="0.4706" style="stop-color:#8BF7AB"/>
		<stop  offset="1" style="stop-color:#FFD465"/>
	</linearGradient>
	<path class="st1" d="M725.8,31.1C617.5,49.9,522.4,125,483.2,235.7c-39.1,110.9-12.1,229,60.3,311.3h1.7
		c107.7-18.9,202.1-93.8,241.1-204.3C825.5,231.7,798.5,113.4,725.8,31.1L725.8,31.1z"/>
	
		<linearGradient id="SVGID_3_" gradientUnits="userSpaceOnUse" x1="5952.7598" y1="-12089.5742" x2="15064.4893" y2="-12157.5742" gradientTransform="matrix(3.308625e-02 0 0 -3.308625e-02 239.7955 -124.0087)">
		<stop  offset="0" style="stop-color:#9BEFD7"/>
		<stop  offset="0.4706" style="stop-color:#8BF7AB"/>
		<stop  offset="1" style="stop-color:#FFD465"/>
	</linearGradient>
	<path class="st2" d="M633.3,7.2C529.9,44.2,449.2,134.9,429.9,251c-19.3,116,28,227.6,113.6,296h1.1
		C647.7,509.8,728,419.4,747.3,303.5C766.6,187.7,719.4,75.9,633.3,7.2L633.3,7.2z"/>
	
		<linearGradient id="SVGID_4_" gradientUnits="userSpaceOnUse" x1="4245.5459" y1="-11991.7402" x2="13961.5107" y2="-12037.0947" gradientTransform="matrix(3.308625e-02 0 0 -3.308625e-02 239.7955 -124.0087)">
		<stop  offset="0" style="stop-color:#9BEFD7"/>
		<stop  offset="0.4706" style="stop-color:#8BF7AB"/>
		<stop  offset="1" style="stop-color:#FFD465"/>
	</linearGradient>
	<path class="st3" d="M538.2,0C442.8,54.4,379,157.7,380.3,275.4c1.1,117.5,66.8,219,163,271.6h0.9
		c95.2-54.5,158.8-157.6,157.4-275.1C700.6,154.4,634.7,52.6,538.2,0L538.2,0z"/>
	
		<linearGradient id="SVGID_5_" gradientUnits="userSpaceOnUse" x1="3125.4998" y1="-12133.5615" x2="12195.3701" y2="-12178.8916" gradientTransform="matrix(3.308625e-02 0 0 -3.308625e-02 239.7955 -124.0087)">
		<stop  offset="0" style="stop-color:#9BEFD7"/>
		<stop  offset="0.4706" style="stop-color:#8BF7AB"/>
		<stop  offset="1" style="stop-color:#FFD465"/>
	</linearGradient>
	<path class="st4" d="M443.3,9.4c-84.4,70.3-129.5,182.9-107.8,298.4C357.2,423.1,439.4,512,543,547h1.1
		c84.2-70.3,129.1-182.7,107.4-298.2C630.1,133,547.6,44.2,443.3,9.4L443.3,9.4z"/>
	
		<linearGradient id="SVGID_6_" gradientUnits="userSpaceOnUse" x1="1623.7705" y1="-12506.9424" x2="10876.25" y2="-12574.9424" gradientTransform="matrix(3.308625e-02 0 0 -3.308625e-02 239.7955 -124.0087)">
		<stop  offset="0" style="stop-color:#9BEFD7"/>
		<stop  offset="0.4706" style="stop-color:#8BF7AB"/>
		<stop  offset="1" style="stop-color:#FFD465"/>
	</linearGradient>
	<path class="st5" d="M351.3,34.9c-71,83.9-95.7,202.7-54.4,312.6C338.2,457.7,435,530.6,543.8,547c71-83.9,95.7-202.7,54.4-312.7
		C556.9,124.4,460.2,51.2,351.3,34.9L351.3,34.9z"/>
	
		<linearGradient id="SVGID_7_" gradientUnits="userSpaceOnUse" x1="-119.6928" y1="-13131.5605" x2="10056.627" y2="-13198.8008" gradientTransform="matrix(3.308625e-02 0 0 -3.308625e-02 239.7955 -124.0087)">
		<stop  offset="0" style="stop-color:#9BEFD7"/>
		<stop  offset="0.4706" style="stop-color:#8BF7AB"/>
		<stop  offset="1" style="stop-color:#FFD465"/>
	</linearGradient>
	<path class="st6" d="M265.3,76.2c-55.2,94.9-59,216.1,0.8,317.5c55.5,94.1,152.6,148.4,254.2,153.4H544
		c55.1-94.9,58.8-215.9-1-317.2C483.2,128.7,375.2,73.5,265.3,76.2L265.3,76.2z"/>
	
		<linearGradient id="SVGID_8_" gradientUnits="userSpaceOnUse" x1="-1708.0699" y1="-13875.2734" x2="9312.1406" y2="-13959.8135" gradientTransform="matrix(3.308625e-02 0 0 -3.308625e-02 239.7955 -124.0087)">
		<stop  offset="0" style="stop-color:#9BEFD7"/>
		<stop  offset="0.4706" style="stop-color:#8BF7AB"/>
		<stop  offset="1" style="stop-color:#FFD465"/>
	</linearGradient>
	<path class="st7" d="M187.8,131.7c-38.1,103-20.6,223.1,56,312.4c47.1,54.9,109,89.5,174.7,103h125.6
		c37.9-102.9,20.5-222.9-56.1-312.1C411.4,145.6,295.6,109.9,187.8,131.7L187.8,131.7z"/>
	
		<linearGradient id="SVGID_9_" gradientUnits="userSpaceOnUse" x1="-3381.2476" y1="-14661.3535" x2="8980.1514" y2="-14785.7041" gradientTransform="matrix(3.308625e-02 0 0 -3.308625e-02 239.7955 -124.0087)">
		<stop  offset="0" style="stop-color:#9BEFD7"/>
		<stop  offset="0.4706" style="stop-color:#8BF7AB"/>
		<stop  offset="1" style="stop-color:#FFD465"/>
	</linearGradient>
	<path class="st8" d="M121.1,199.8c-19.6,108.1,18.5,223.4,109.4,297.9c25.8,21.3,54,37.7,83.5,49.3h230.2
		c19.5-108-18.6-223.2-109.4-297.6C343.8,174.6,223.2,159.8,121.1,199.8L121.1,199.8z"/>
	
		<linearGradient id="SVGID_10_" gradientUnits="userSpaceOnUse" x1="-5271.4668" y1="-15472.0967" x2="9248.9824" y2="-15637.4766" gradientTransform="matrix(3.308625e-02 0 0 -3.308625e-02 239.7955 -124.0087)">
		<stop  offset="0" style="stop-color:#9BEFD7"/>
		<stop  offset="0.4706" style="stop-color:#8BF7AB"/>
		<stop  offset="1" style="stop-color:#FFD465"/>
	</linearGradient>
	<path class="st9" d="M67.2,278.6c-0.5,106.1,52.9,209.3,149,268.4h327.8c0.3-109.7-57-216.2-159.5-274
		C282.2,215,161,221.2,67.2,278.6L67.2,278.6z"/>
	
		<linearGradient id="SVGID_11_" gradientUnits="userSpaceOnUse" x1="136625456" y1="-1766533.375" x2="383041248" y2="-4923101.5" gradientTransform="matrix(3.308625e-02 0 0 -3.308625e-02 239.7955 -124.0087)">
		<stop  offset="0" style="stop-color:#9BEFD7"/>
		<stop  offset="0.4706" style="stop-color:#8BF7AB"/>
		<stop  offset="1" style="stop-color:#FFD465"/>
	</linearGradient>
	<path class="st10" d="M27.8,365.5C39.7,435.3,75.1,499.6,128.5,547h415.3c-18.6-108.2-93.6-203.3-204.5-242.4
		C228.3,265.7,110.1,292.8,27.8,365.5L27.8,365.5z"/>
	
		<linearGradient id="SVGID_12_" gradientUnits="userSpaceOnUse" x1="130751256" y1="-1831911.125" x2="399825024" y2="-5566451.5" gradientTransform="matrix(3.308625e-02 0 0 -3.308625e-02 239.7955 -124.0087)">
		<stop  offset="0" style="stop-color:#9BEFD7"/>
		<stop  offset="0.4706" style="stop-color:#8BF7AB"/>
		<stop  offset="1" style="stop-color:#FFD465"/>
	</linearGradient>
	<path class="st11" d="M3.9,457.7c11.7,32.4,28.5,62.5,49.7,89.3h490c-37.3-103.4-127.6-184-243.6-203.3
		C184.1,324.7,72.6,371.9,3.9,457.7L3.9,457.7z"/>
	
		<linearGradient id="SVGID_13_" gradientUnits="userSpaceOnUse" x1="128096952" y1="-1916786.125" x2="402338656" y2="-5982002" gradientTransform="matrix(3.308625e-02 0 0 -3.308625e-02 239.7955 -124.0087)">
		<stop  offset="0" style="stop-color:#9BEFD7"/>
		<stop  offset="0.4706" style="stop-color:#8BF7AB"/>
		<stop  offset="1" style="stop-color:#FFD465"/>
	</linearGradient>
	<path class="st12" d="M543.9,547c-54.5-95.3-157.6-159-275.1-157.7C153.5,390.4,53.4,453.7,0,547H543.9z"/>
	
		<linearGradient id="SVGID_14_" gradientUnits="userSpaceOnUse" x1="117374424" y1="-1640291.75" x2="356221568" y2="-4940305" gradientTransform="matrix(3.308625e-02 0 0 -3.308625e-02 239.7955 -124.0087)">
		<stop  offset="0" style="stop-color:#9BEFD7"/>
		<stop  offset="0.4706" style="stop-color:#8BF7AB"/>
		<stop  offset="1" style="stop-color:#FFD465"/>
	</linearGradient>
	<path class="st13" d="M543.9,547c-70.2-84.3-182.7-129.2-298.4-107.5c-74.7,14-138.2,53.4-183.2,107.5H543.9L543.9,547z"/>
	
		<linearGradient id="SVGID_15_" gradientUnits="userSpaceOnUse" x1="108037216" y1="-1274108" x2="299000224" y2="-3492314" gradientTransform="matrix(3.308625e-02 0 0 -3.308625e-02 239.7955 -124.0087)">
		<stop  offset="0" style="stop-color:#9BEFD7"/>
		<stop  offset="0.4706" style="stop-color:#8BF7AB"/>
		<stop  offset="1" style="stop-color:#FFD465"/>
	</linearGradient>
	<path class="st14" d="M543.5,547C459.6,476.2,341,451.6,231,492.8c-34.5,13.1-65.4,31.6-92.1,54.2H543.5z"/>
	
		<linearGradient id="SVGID_16_" gradientUnits="userSpaceOnUse" x1="96744888" y1="-1153279.125" x2="232031360" y2="-2738576.75" gradientTransform="matrix(3.308625e-02 0 0 -3.308625e-02 239.7955 -124.0087)">
		<stop  offset="0" style="stop-color:#9BEFD7"/>
		<stop  offset="0.4706" style="stop-color:#8BF7AB"/>
		<stop  offset="1" style="stop-color:#FFD465"/>
	</linearGradient>
	<path class="st15" d="M543.3,547c-94.2-54.6-214.3-58.6-315.1,0H543.3z"/>
	
		<linearGradient id="SVGID_17_" gradientUnits="userSpaceOnUse" x1="78934728" y1="-827267.875" x2="158756640" y2="-1643666.625" gradientTransform="matrix(3.308625e-02 0 0 -3.308625e-02 239.7955 -124.0087)">
		<stop  offset="0" style="stop-color:#9BEFD7"/>
		<stop  offset="0.4706" style="stop-color:#8BF7AB"/>
		<stop  offset="1" style="stop-color:#FFD465"/>
	</linearGradient>
	<path class="st16" d="M543.8,547L543.8,547c-69.5-25.7-146.9-26.1-217.3,0H543.8z"/>
	
		<linearGradient id="SVGID_18_" gradientUnits="userSpaceOnUse" x1="44889312" y1="-369944.7188" x2="80675744" y2="-648800.75" gradientTransform="matrix(3.308625e-02 0 0 -3.308625e-02 239.7955 -124.0087)">
		<stop  offset="0" style="stop-color:#9BEFD7"/>
		<stop  offset="0.4706" style="stop-color:#8BF7AB"/>
		<stop  offset="1" style="stop-color:#FFD465"/>
	</linearGradient>
	<path class="st17" d="M542.5,547c-36-6.3-72.8-6.3-108.6,0H542.5z"/>
	
		<linearGradient id="SVGID_19_" gradientUnits="userSpaceOnUse" x1="89054376" y1="-703042.125" x2="129528784" y2="-1013427.1875" gradientTransform="matrix(3.308625e-02 0 0 -3.308625e-02 239.7955 -124.0087)">
		<stop  offset="0" style="stop-color:#9BEFD7"/>
		<stop  offset="0.4706" style="stop-color:#8BF7AB"/>
		<stop  offset="1" style="stop-color:#FFD465"/>
	</linearGradient>
	<path class="st18" d="M666.7,547c-40-7.9-81.3-7.9-121.5,0H666.7z"/>
	
		<linearGradient id="SVGID_20_" gradientUnits="userSpaceOnUse" x1="169322128" y1="-1722658.625" x2="254417296" y2="-2578429.75" gradientTransform="matrix(3.308625e-02 0 0 -3.308625e-02 239.7955 -124.0087)">
		<stop  offset="0" style="stop-color:#9BEFD7"/>
		<stop  offset="0.4706" style="stop-color:#8BF7AB"/>
		<stop  offset="1" style="stop-color:#FFD465"/>
	</linearGradient>
	<path class="st19" d="M772.6,547c-73.7-28.8-155.3-28.2-227.8,0H772.6L772.6,547z"/>
	
		<linearGradient id="SVGID_21_" gradientUnits="userSpaceOnUse" x1="240478384" y1="-2417068" x2="383968960" y2="-3847686.25" gradientTransform="matrix(3.308625e-02 0 0 -3.308625e-02 239.7955 -124.0087)">
		<stop  offset="0" style="stop-color:#9BEFD7"/>
		<stop  offset="0.4706" style="stop-color:#8BF7AB"/>
		<stop  offset="1" style="stop-color:#FFD465"/>
	</linearGradient>
	<path class="st20" d="M870.8,547c-3.2-1.9-6.3-3.8-9.6-5.6c-102.4-57.6-223.6-51.5-317.4,5.6v0H870.8L870.8,547z"/>
	
		<linearGradient id="SVGID_22_" gradientUnits="userSpaceOnUse" x1="304057760" y1="-3518823.75" x2="501037568" y2="-5786167" gradientTransform="matrix(3.308625e-02 0 0 -3.308625e-02 239.7955 -124.0087)">
		<stop  offset="0" style="stop-color:#9BEFD7"/>
		<stop  offset="0.4706" style="stop-color:#8BF7AB"/>
		<stop  offset="1" style="stop-color:#FFD465"/>
	</linearGradient>
	<path class="st21" d="M958.4,547c-29.3-25.8-63.9-46.5-102.8-60.3C744.9,447.6,627,474.7,544.7,547H958.4z"/>
	
		<linearGradient id="SVGID_23_" gradientUnits="userSpaceOnUse" x1="359811744" y1="-5010055" x2="603316800" y2="-8388246.5" gradientTransform="matrix(3.308625e-02 0 0 -3.308625e-02 239.7955 -124.0087)">
		<stop  offset="0" style="stop-color:#9BEFD7"/>
		<stop  offset="0.4706" style="stop-color:#8BF7AB"/>
		<stop  offset="1" style="stop-color:#FFD465"/>
	</linearGradient>
	<path class="st22" d="M1033.6,547C987.1,488.6,919.5,446.5,840,433.3C724.1,414,612.7,461.1,544,547H1033.6z"/>
	
		<linearGradient id="SVGID_24_" gradientUnits="userSpaceOnUse" x1="402068288" y1="-6519886" x2="677928960" y2="-10981133" gradientTransform="matrix(3.308625e-02 0 0 -3.308625e-02 239.7955 -124.0087)">
		<stop  offset="0" style="stop-color:#9BEFD7"/>
		<stop  offset="0.4706" style="stop-color:#8BF7AB"/>
		<stop  offset="1" style="stop-color:#FFD465"/>
	</linearGradient>
	<path class="st23" d="M1091.2,541.6c-54.4-95.5-157.6-159.3-275.3-157.9C698.3,385,596.5,450.9,544,547h544.2
		C1089.2,545.2,1090.2,543.4,1091.2,541.6L1091.2,541.6z"/>
	
		<linearGradient id="SVGID_25_" gradientUnits="userSpaceOnUse" x1="394092384" y1="-5461814" x2="660062656" y2="-9136573" gradientTransform="matrix(3.308625e-02 0 0 -3.308625e-02 239.7955 -124.0087)">
		<stop  offset="0" style="stop-color:#9BEFD7"/>
		<stop  offset="0.4706" style="stop-color:#8BF7AB"/>
		<stop  offset="1" style="stop-color:#FFD465"/>
	</linearGradient>
	<path class="st24" d="M1081.8,446.7c-70.2-84.5-182.8-129.5-298.3-107.8C668,360.6,579.1,443.1,544.2,547H1026
		C1050.5,517.4,1069.5,483.4,1081.8,446.7z"/>
	
		<linearGradient id="SVGID_26_" gradientUnits="userSpaceOnUse" x1="374623808" y1="-4843031.5" x2="615578304" y2="-7947686.5" gradientTransform="matrix(3.308625e-02 0 0 -3.308625e-02 239.7955 -124.0087)">
		<stop  offset="0" style="stop-color:#9BEFD7"/>
		<stop  offset="0.4706" style="stop-color:#8BF7AB"/>
		<stop  offset="1" style="stop-color:#FFD465"/>
	</linearGradient>
	<path class="st25" d="M1056.3,354.7c-83.9-71.1-202.7-95.7-312.6-54.2C633.7,341.8,560.6,438.5,544.1,547h405.4
		C1007.3,497.7,1045,429,1056.3,354.7L1056.3,354.7z"/>
	
		<linearGradient id="SVGID_27_" gradientUnits="userSpaceOnUse" x1="9217.8115" y1="-15380.2188" x2="23425.8613" y2="-15525.8887" gradientTransform="matrix(3.308625e-02 0 0 -3.308625e-02 239.7955 -124.0087)">
		<stop  offset="0" style="stop-color:#9BEFD7"/>
		<stop  offset="0.4706" style="stop-color:#8BF7AB"/>
		<stop  offset="1" style="stop-color:#FFD465"/>
	</linearGradient>
	<path class="st26" d="M1015.1,268.7c-94.9-55.2-216.1-59-317.4,0.8C596.4,329.2,541.2,437.2,544.1,547h316.5
		c0.3-0.2,0.6-0.4,0.9-0.5C962.5,486.7,1017.7,378.6,1015.1,268.7L1015.1,268.7z"/>
	
		<linearGradient id="SVGID_28_" gradientUnits="userSpaceOnUse" x1="9382.1748" y1="-14564.0859" x2="21555.6152" y2="-14688.3662" gradientTransform="matrix(3.308625e-02 0 0 -3.308625e-02 239.7955 -124.0087)">
		<stop  offset="0" style="stop-color:#9BEFD7"/>
		<stop  offset="0.4706" style="stop-color:#8BF7AB"/>
		<stop  offset="1" style="stop-color:#FFD465"/>
	</linearGradient>
	<path class="st27" d="M959.6,191.2c-102.9-38.1-223-20.6-312.3,56C558.2,323.8,522.5,439.4,544,547h218.9
		c33.3-12.5,65-31,93.5-55.5C945.6,414.8,981.3,299,959.6,191.2L959.6,191.2z"/>
	
		<linearGradient id="SVGID_29_" gradientUnits="userSpaceOnUse" x1="8980.5986" y1="-13782.7832" x2="19880.4492" y2="-13867.7334" gradientTransform="matrix(3.308625e-02 0 0 -3.308625e-02 239.7955 -124.0087)">
		<stop  offset="0" style="stop-color:#9BEFD7"/>
		<stop  offset="0.4706" style="stop-color:#8BF7AB"/>
		<stop  offset="1" style="stop-color:#FFD465"/>
	</linearGradient>
	<path class="st28" d="M891.2,124.4c-108-19.6-223.3,18.5-297.8,109.4c-74.7,90.8-89.5,211.1-49.7,313.2H657
		c70-13,136.1-49.8,184.9-109.1C916.7,347,931.4,226.6,891.2,124.4z"/>
</g>
</svg>
