<?xml version="1.0" encoding="UTF-8" standalone="no"?>
<svg
   xmlns:dc="http://purl.org/dc/elements/1.1/"
   xmlns:cc="http://creativecommons.org/ns#"
   xmlns:rdf="http://www.w3.org/1999/02/22-rdf-syntax-ns#"
   xmlns:svg="http://www.w3.org/2000/svg"
   xmlns="http://www.w3.org/2000/svg"
   xmlns:sodipodi="http://sodipodi.sourceforge.net/DTD/sodipodi-0.dtd"
   xmlns:inkscape="http://www.inkscape.org/namespaces/inkscape"
   width="73"
   height="41"
   viewBox="0 0 73 41"
   fill="none"
   version="1.1"
   id="svg35"
   sodipodi:docname="gnoagave.svg"
   inkscape:version="1.0.1 (3bc2e813f5, 2020-09-07)">
  <metadata
     id="metadata39">
    <rdf:RDF>
      <cc:Work
         rdf:about="">
        <dc:format>image/svg+xml</dc:format>
        <dc:type
           rdf:resource="http://purl.org/dc/dcmitype/StillImage" />
        <dc:title></dc:title>
      </cc:Work>
    </rdf:RDF>
  </metadata>
  <sodipodi:namedview
     pagecolor="#ffffff"
     bordercolor="#666666"
     borderopacity="1"
     objecttolerance="10"
     gridtolerance="10"
     guidetolerance="10"
     inkscape:pageopacity="0"
     inkscape:pageshadow="2"
     inkscape:window-width="1920"
     inkscape:window-height="1017"
     id="namedview37"
     showgrid="false"
     inkscape:zoom="15.178082"
     inkscape:cx="36.5"
     inkscape:cy="20.5"
     inkscape:window-x="-8"
     inkscape:window-y="-8"
     inkscape:window-maximized="1"
     inkscape:current-layer="svg35" />
  <circle
     cx="52.2596"
     cy="20.5579"
     r="19.9441"
     fill="url(#paint0_linear_2024:175)"
     id="circle2" />
  <path
     fill-rule="evenodd"
     clip-rule="evenodd"
     d="M52.2593 31.568L52.0451 31.3993C51.5304 31.0017 50.6779 30.3701 50.3477 30.0192C49.011 28.6008 47.1544 26.5509 45.9616 23.6321C44.7697 20.7132 44.4725 17.7774 44.4344 15.8292C44.4005 14.1175 44.5504 12.767 44.8306 11.1292L45.7424 11.7879C45.7915 11.8235 46.9547 12.6687 48.4031 14.2066C49.5596 15.4333 51.0944 17.3213 52.2593 19.6984C53.4242 17.3213 54.959 15.4333 56.1154 14.2066C57.5639 12.6695 58.7271 11.8235 58.7762 11.7879L59.6879 11.1292C59.9673 12.767 60.118 14.1175 60.0841 15.8292C60.046 17.7782 59.7489 20.7132 58.5569 23.6329C57.3641 26.5518 55.5076 28.6017 54.1708 30.02C53.8407 30.371 52.9873 31.0026 52.4735 31.4002L52.2593 31.568Z"
     fill="#019D8B"
     id="path4" />
  <path
     fill-rule="evenodd"
     clip-rule="evenodd"
     d="M40.3396 16.9515L40.2617 15.8291L41.3038 16.2538C41.4867 16.3276 45.4749 17.9841 48.5878 21.6677C48.5827 21.4956 48.5793 21.3235 48.5793 21.1489C48.5793 16.8176 49.9964 12.7797 52.2602 9.14697C54.5239 12.7797 55.9411 16.8176 55.9411 21.1489C55.9411 21.3235 55.9377 21.4956 55.9326 21.6677C59.0455 17.9841 63.0337 16.3284 63.2165 16.2538L64.2586 15.8291L64.1808 16.9515C62.822 37.0479 41.6984 37.0479 40.3396 16.9515Z"
     fill="url(#paint1_linear_2024:175)"
     id="path6" />
  <path
     fill-rule="evenodd"
     clip-rule="evenodd"
     d="M51.0263 27.1792C50.7401 27.1792 50.625 27.2903 50.625 27.5632C50.625 28.2288 51.3598 28.7688 52.2623 28.7688C53.1648 28.7688 53.8971 28.2279 53.8971 27.5632C53.8971 27.2903 53.7811 27.1792 53.4958 27.1792C53.3443 27.1843 53.191 27.2004 53.0412 27.225L53.0268 27.2275C52.7745 27.2691 52.5163 27.2928 52.2615 27.297C52.0066 27.2928 51.7476 27.2691 51.4953 27.2275C51.3404 27.2012 51.1829 27.1843 51.0263 27.1792Z"
     fill="#019D8B"
     id="path8" />
  <path
     d="M48.084 27.2528C48.8111 27.2528 49.4005 26.6626 49.4005 25.9345C49.4005 25.2064 48.8111 24.6162 48.084 24.6162C47.357 24.6162 46.7676 25.2064 46.7676 25.9345C46.7676 26.6626 47.357 27.2528 48.084 27.2528Z"
     fill="#019D8B"
     id="path10" />
  <path
     d="M56.4336 27.2528C57.1607 27.2528 57.7501 26.6626 57.7501 25.9345C57.7501 25.2064 57.1607 24.6162 56.4336 24.6162C55.7066 24.6162 55.1172 25.2064 55.1172 25.9345C55.1172 26.6626 55.7066 27.2528 56.4336 27.2528Z"
     fill="#019D8B"
     id="path12" />
  <circle
     cx="20.3172"
     cy="20.4461"
     r="19.9441"
     fill="url(#paint2_linear_2024:175)"
     id="circle14" />
  <defs
     id="defs33">
    <linearGradient
       id="paint0_linear_2024:175"
       x1="52.2596"
       y1="4.15853"
       x2="52.2596"
       y2="59.0633"
       gradientUnits="userSpaceOnUse">
      <stop
         stop-color="#F3FFF7"
         id="stop18" />
      <stop
         offset="1"
         stop-color="#DCFFF1"
         id="stop20" />
    </linearGradient>
    <linearGradient
       id="paint1_linear_2024:175"
       x1="52.2602"
       y1="6.85929"
       x2="52.2602"
       y2="32.0238"
       gradientUnits="userSpaceOnUse">
      <stop
         stop-color="#00B59C"
         id="stop23" />
      <stop
         offset="1"
         stop-color="#8EF8AB"
         id="stop25" />
    </linearGradient>
    <linearGradient
       id="paint2_linear_2024:175"
       x1="20.3172"
       y1="4.04671"
       x2="20.3172"
       y2="58.9515"
       gradientUnits="userSpaceOnUse">
      <stop
         stop-color="#F3FFF7"
         id="stop28" />
      <stop
         offset="1"
         stop-color="#DCFFF1"
         id="stop30" />
    </linearGradient>
    <style
       id="style41">.cls-1{fill:#2a5ada;}</style>
  </defs>
  <path
     class="cls-1"
     d="M 20.086999,8.033 17.761921,9.348806 11.426079,12.952946 9.101,14.268751 V 26.74025 l 2.325079,1.315794 6.39396,3.604154 2.32508,1.315802 2.325079,-1.315802 L 28.74792,28.056044 31.073,26.74025 V 14.268751 L 28.74792,12.952946 22.412079,9.348807 Z m -6.335841,16.075641 v -7.208293 l 6.335841,-3.604141 6.335842,3.604141 v 7.208293 l -6.335842,3.604153 z"
     id="path47"
     style="stroke-width:0.576657" />
</svg>
