<svg width="11" height="11" viewBox="0 0 11 11" fill="none" xmlns="http://www.w3.org/2000/svg">
<path d="M5.36544 2.27978C5.36544 2.36763 5.43321 2.43884 5.51682 2.43884C5.60043 2.43884 5.6682 2.36763 5.6682 2.27978V0.159055C5.6682 0.0712035 5.60043 0 5.51682 0C5.43321 0 5.36544 0.0712035 5.36544 0.159055V2.27978Z" fill="white"/>
<path d="M3.76974 2.79603C3.79958 2.84742 3.85371 2.87615 3.90939 2.87615C3.9367 2.87615 3.96441 2.86921 3.98977 2.85465C4.06682 2.81043 4.09321 2.71248 4.04872 2.63587L2.9749 0.786516C2.93044 0.709943 2.83195 0.683677 2.75487 0.727898C2.67784 0.772137 2.65144 0.870083 2.69591 0.946674L3.76974 2.79603Z" fill="white"/>
<path d="M2.71581 4.07034C2.68865 4.07034 2.66111 4.06336 2.63589 4.04872L0.786524 2.9749C0.709915 2.93043 0.683685 2.83192 0.727906 2.75488C0.77211 2.67785 0.870056 2.65143 0.946682 2.69592L2.79605 3.76974C2.87264 3.81421 2.89889 3.91272 2.85467 3.98976C2.825 4.04143 2.77115 4.07034 2.71581 4.07034Z" fill="white"/>
<path d="M0.159055 5.6682H2.27978C2.36763 5.6682 2.43884 5.60043 2.43884 5.51682C2.43884 5.43321 2.36763 5.36544 2.27978 5.36544H0.159055C0.0712035 5.36544 0 5.43321 0 5.51682C0 5.60043 0.0712035 5.6682 0.159055 5.6682Z" fill="white"/>
<path d="M0.86676 8.32569C0.811398 8.32569 0.757567 8.2968 0.727902 8.24512C0.683681 8.16807 0.709929 8.06956 0.78652 8.02509L2.63589 6.95127C2.71251 6.90679 2.81044 6.93319 2.85466 7.01022C2.89888 7.08727 2.87265 7.18577 2.79604 7.23025L0.946679 8.30407C0.921463 8.31871 0.893915 8.32569 0.86676 8.32569Z" fill="white"/>
<path d="M2.75488 10.2721C2.78026 10.2866 2.80794 10.2936 2.83526 10.2936C2.89092 10.2936 2.94507 10.2648 2.97491 10.2135L4.04873 8.36412C4.09321 8.28753 4.06681 8.18958 3.98978 8.14535C3.91268 8.10109 3.81423 8.12739 3.76975 8.20396L2.69593 10.0533C2.65143 10.1299 2.67783 10.2279 2.75488 10.2721Z" fill="white"/>
<path d="M5.51682 11C5.43321 11 5.36544 10.9288 5.36544 10.8409V8.72022C5.36544 8.63237 5.43321 8.56116 5.51682 8.56116C5.60043 8.56116 5.6682 8.63237 5.6682 8.72022V10.8409C5.6682 10.9288 5.60043 11 5.51682 11Z" fill="white"/>
<path d="M8.02509 10.2135C8.05493 10.2649 8.10907 10.2936 8.16474 10.2936C8.19206 10.2936 8.21976 10.2866 8.24512 10.2721C8.32217 10.2279 8.34857 10.1299 8.30407 10.0533L7.23025 8.20395C7.18579 8.12737 7.0873 8.10111 7.01022 8.14533C6.93319 8.18957 6.90679 8.28751 6.95127 8.36411L8.02509 10.2135Z" fill="white"/>
<path d="M10.1332 8.32569C10.1061 8.32569 10.0785 8.31871 10.0533 8.30407L8.20396 7.23025C8.12735 7.18578 8.10112 7.08727 8.14534 7.01023C8.18954 6.9332 8.2875 6.90678 8.36411 6.95127L10.2135 8.02509C10.2901 8.06957 10.3163 8.16807 10.2721 8.24512C10.2424 8.29679 10.1886 8.32569 10.1332 8.32569Z" fill="white"/>
<path d="M8.72022 5.6682H10.8409C10.9288 5.6682 11 5.60043 11 5.51682C11 5.43321 10.9288 5.36544 10.8409 5.36544H8.72022C8.63237 5.36544 8.56116 5.43321 8.56116 5.51682C8.56116 5.60043 8.63237 5.6682 8.72022 5.6682Z" fill="white"/>
<path d="M8.28419 4.07034C8.22883 4.07034 8.175 4.04145 8.14533 3.98976C8.10111 3.91272 8.12736 3.81421 8.20395 3.76974L10.0533 2.69591C10.13 2.65144 10.2279 2.67784 10.2721 2.75487C10.3163 2.83191 10.2901 2.93042 10.2135 2.97489L8.36411 4.04872C8.33889 4.06336 8.31135 4.07034 8.28419 4.07034Z" fill="white"/>
<path d="M7.01023 2.85465C7.03561 2.86921 7.0633 2.87615 7.09061 2.87615C7.14627 2.87615 7.20043 2.84741 7.23026 2.79603L8.30409 0.946688C8.34856 0.870097 8.32216 0.772153 8.24513 0.727914C8.16801 0.683657 8.06956 0.709959 8.02511 0.786531L6.95128 2.63588C6.90679 2.71248 6.93319 2.81043 7.01023 2.85465Z" fill="white"/>
</svg>
