<svg width="110" height="110" viewBox="0 0 110 110" fill="none" xmlns="http://www.w3.org/2000/svg">
<path d="M83.7462 25.3L58.8169 43.5249L63.4473 32.7725L83.7462 25.3Z" fill="#E2761B" stroke="#E2761B" stroke-linecap="round" stroke-linejoin="round"/>
<path d="M26.2537 25.3L50.9577 43.6975L46.5525 32.7725L26.2537 25.3Z" fill="#E4761B" stroke="#E4761B" stroke-linecap="round" stroke-linejoin="round"/>
<path d="M74.7858 67.5454L68.153 77.558L82.3446 81.4052L86.3994 67.7674L74.7858 67.5454Z" fill="#E4761B" stroke="#E4761B" stroke-linecap="round" stroke-linejoin="round"/>
<path d="M23.6256 67.7674L27.6553 81.4052L41.847 77.558L35.2393 67.5454L23.6256 67.7674Z" fill="#E4761B" stroke="#E4761B" stroke-linecap="round" stroke-linejoin="round"/>
<path d="M41.0712 50.6275L37.1166 56.5216L51.1831 57.1382L50.7076 42.2179L41.0712 50.6275Z" fill="#E4761B" stroke="#E4761B" stroke-linecap="round" stroke-linejoin="round"/>
<path d="M68.9288 50.6276L59.1423 42.0453L58.8169 57.1382L72.8834 56.5217L68.9288 50.6276Z" fill="#E4761B" stroke="#E4761B" stroke-linecap="round" stroke-linejoin="round"/>
<path d="M41.847 77.558L50.332 73.4888L43.0234 67.866L41.847 77.558Z" fill="#E4761B" stroke="#E4761B" stroke-linecap="round" stroke-linejoin="round"/>
<path d="M59.668 73.4888L68.1529 77.558L66.9766 67.866L59.668 73.4888Z" fill="#E4761B" stroke="#E4761B" stroke-linecap="round" stroke-linejoin="round"/>
<path d="M68.1529 77.5579L59.668 73.4888L60.3438 78.939L60.2687 81.2325L68.1529 77.5579Z" fill="#D7C1B3" stroke="#D7C1B3" stroke-linecap="round" stroke-linejoin="round"/>
<path d="M41.847 77.5579L49.7313 81.2325L49.6813 78.939L50.332 73.4888L41.847 77.5579Z" fill="#D7C1B3" stroke="#D7C1B3" stroke-linecap="round" stroke-linejoin="round"/>
<path d="M49.8814 64.2654L42.8231 62.2185L47.804 59.9743L49.8814 64.2654Z" fill="#233447" stroke="#233447" stroke-linecap="round" stroke-linejoin="round"/>
<path d="M60.1185 64.2654L62.196 59.9743L67.2019 62.2185L60.1185 64.2654Z" fill="#233447" stroke="#233447" stroke-linecap="round" stroke-linejoin="round"/>
<path d="M41.847 77.558L43.0735 67.5453L35.2393 67.7673L41.847 77.558Z" fill="#CD6116" stroke="#CD6116" stroke-linecap="round" stroke-linejoin="round"/>
<path d="M66.9265 67.5453L68.153 77.558L74.7858 67.7673L66.9265 67.5453Z" fill="#CD6116" stroke="#CD6116" stroke-linecap="round" stroke-linejoin="round"/>
<path d="M72.8834 56.5216L58.8169 57.1381L60.1184 64.2654L62.1959 59.9742L67.2018 62.2184L72.8834 56.5216Z" fill="#CD6116" stroke="#CD6116" stroke-linecap="round" stroke-linejoin="round"/>
<path d="M42.8232 62.2184L47.804 59.9742L49.8815 64.2654L51.183 57.1381L37.1165 56.5216L42.8232 62.2184Z" fill="#CD6116" stroke="#CD6116" stroke-linecap="round" stroke-linejoin="round"/>
<path d="M37.1165 56.5216L43.0234 67.8659L42.8232 62.2184L37.1165 56.5216Z" fill="#E4751F" stroke="#E4751F" stroke-linecap="round" stroke-linejoin="round"/>
<path d="M67.2018 62.2184L66.9766 67.8659L72.8835 56.5216L67.2018 62.2184Z" fill="#E4751F" stroke="#E4751F" stroke-linecap="round" stroke-linejoin="round"/>
<path d="M51.183 57.1382L49.8815 64.2654L51.5334 72.675L51.8838 61.6019L51.183 57.1382Z" fill="#E4751F" stroke="#E4751F" stroke-linecap="round" stroke-linejoin="round"/>
<path d="M58.8169 57.1382L58.1411 61.5773L58.4665 72.675L60.1184 64.2654L58.8169 57.1382Z" fill="#E4751F" stroke="#E4751F" stroke-linecap="round" stroke-linejoin="round"/>
<path d="M60.1185 64.2653L58.4666 72.6749L59.668 73.4887L66.9766 67.8659L67.2018 62.2184L60.1185 64.2653Z" fill="#F6851B" stroke="#F6851B" stroke-linecap="round" stroke-linejoin="round"/>
<path d="M42.8231 62.2184L43.0234 67.8659L50.332 73.4887L51.5334 72.6749L49.8814 64.2653L42.8231 62.2184Z" fill="#F6851B" stroke="#F6851B" stroke-linecap="round" stroke-linejoin="round"/>
<path d="M60.2687 81.2325L60.3438 78.939L59.7181 78.3964H50.282L49.6813 78.939L49.7313 81.2325L41.847 77.5579L44.6003 79.7775L50.2069 83.6H59.7931L65.3997 79.7775L68.153 77.5579L60.2687 81.2325Z" fill="#C0AD9E" stroke="#C0AD9E" stroke-linecap="round" stroke-linejoin="round"/>
<path d="M59.6679 73.4888L58.4665 72.675H51.5333L50.3319 73.4888L49.6812 78.939L50.2819 78.3965H59.718L60.3437 78.939L59.6679 73.4888Z" fill="#161616" stroke="#161616" stroke-linecap="round" stroke-linejoin="round"/>
<path d="M84.7974 44.7087L86.8999 34.6467L83.7462 25.3L59.6678 42.9084L68.9287 50.6275L82.0191 54.4007L84.8975 51.0714L83.646 50.1835L85.6484 48.3832L84.1216 47.1995L86.124 45.6951L84.7974 44.7087Z" fill="#763D16" stroke="#763D16" stroke-linecap="round" stroke-linejoin="round"/>
<path d="M23.1 34.6467L25.2275 44.7087L23.8759 45.6951L25.8782 47.1995L24.3514 48.3832L26.3538 50.1835L25.1023 51.0714L27.9807 54.4007L41.0711 50.6275L50.332 42.9084L26.2537 25.3L23.1 34.6467Z" fill="#763D16" stroke="#763D16" stroke-linecap="round" stroke-linejoin="round"/>
<path d="M82.0192 54.4008L68.9289 50.6276L72.8835 56.5217L66.9766 67.866L74.7857 67.7674H86.3994L82.0192 54.4008Z" fill="#F6851B" stroke="#F6851B" stroke-linecap="round" stroke-linejoin="round"/>
<path d="M41.0711 50.6276L27.9807 54.4008L23.6256 67.7674H35.2393L43.0234 67.866L37.1165 56.5217L41.0711 50.6276Z" fill="#F6851B" stroke="#F6851B" stroke-linecap="round" stroke-linejoin="round"/>
<path d="M58.8169 57.138L59.6679 42.9083L63.4474 32.7724H46.5525L50.3319 42.9083L51.1829 57.138L51.5083 61.6264L51.5333 72.6748H58.4665L58.4915 61.6264L58.8169 57.138Z" fill="#F6851B" stroke="#F6851B" stroke-linecap="round" stroke-linejoin="round"/>
</svg>
