<?xml version="1.0" standalone="no"?>
<!DOCTYPE svg PUBLIC "-//W3C//DTD SVG 20010904//EN"
 "http://www.w3.org/TR/2001/REC-SVG-20010904/DTD/svg10.dtd">
<svg version="1.0" xmlns="http://www.w3.org/2000/svg"
 width="928.000000pt" height="320.000000pt" viewBox="0 0 928.000000 320.000000"
 preserveAspectRatio="xMidYMid meet">
<metadata>
Created by potrace 1.16, written by Peter Selinger 2001-2019
</metadata>
<g transform="translate(0.000000,320.000000) scale(0.100000,-0.100000)"
fill="#000000" stroke="none">
<path d="M1585 3175 c-52 -51 -15 -135 59 -135 51 0 147 -33 198 -68 80 -55
148 -186 148 -285 0 -38 40 -77 80 -77 47 0 80 38 80 94 0 260 -232 495 -488
496 -43 0 -58 -5 -77 -25z"/>
<path d="M2687 3185 c-89 -25 -160 -66 -227 -134 -93 -95 -150 -225 -150 -344
0 -58 31 -97 78 -97 51 0 72 27 87 113 17 97 45 155 101 211 56 56 114 84 211
101 57 10 82 19 95 35 26 32 23 76 -7 105 -20 21 -33 25 -82 24 -32 0 -80 -7
-106 -14z"/>
<path d="M2129 2386 c-20 -7 -211 -114 -424 -237 l-388 -224 457 -3 c252 -1
660 -1 908 0 l451 3 -388 224 c-214 124 -405 230 -424 237 -46 17 -146 17
-192 0z"/>
<path d="M5925 1909 c-27 -5 -80 -14 -117 -20 l-68 -11 0 -704 0 -704 145 0
145 0 0 374 0 374 43 8 c72 12 139 7 166 -14 54 -39 56 -51 61 -407 l5 -330
148 -3 147 -3 0 288 c0 429 -17 521 -114 619 -74 73 -140 96 -276 98 -58 1
-122 -3 -142 -7 l-38 -8 0 231 0 230 -27 -1 c-16 -1 -50 -5 -78 -10z"/>
<path d="M6888 1880 c-58 -31 -81 -78 -76 -155 3 -57 8 -69 38 -100 78 -81
206 -72 274 18 28 37 33 124 11 171 -37 78 -161 111 -247 66z"/>
<path d="M5290 1829 c-90 -15 -120 -25 -140 -43 -47 -44 -165 -119 -264 -167
-55 -27 -101 -51 -103 -53 -6 -5 68 -189 82 -204 10 -11 26 -7 91 18 43 17 98
43 121 56 l43 25 2 -493 3 -493 143 -3 142 -3 0 691 c0 379 -1 690 -2 689 -2
0 -55 -10 -118 -20z"/>
<path d="M8725 1479 c-70 -17 -167 -72 -226 -129 -99 -97 -149 -228 -149 -395
-1 -399 313 -591 780 -480 100 24 95 15 74 149 -13 89 -21 115 -31 112 -102
-40 -311 -54 -386 -27 -66 23 -137 99 -137 146 0 13 37 15 316 15 l317 0 -6
133 c-6 140 -18 195 -64 279 -83 153 -300 241 -488 197z m154 -239 c58 -16
100 -67 116 -137 l7 -33 -177 0 -177 0 7 28 c19 78 64 127 129 142 45 11 57
11 95 0z"/>
<path d="M6835 1448 c-3 -7 -4 -229 -3 -493 l3 -480 143 -3 142 -3 0 496 0
495 -140 0 c-103 0 -142 -3 -145 -12z"/>
<path d="M7290 1446 c0 -62 231 -677 328 -876 l47 -95 121 -3 121 -3 60 128
c83 174 182 427 259 660 35 107 64 197 64 199 0 3 -68 3 -151 2 l-151 -3 -24
-85 c-42 -147 -167 -530 -174 -530 -7 0 -133 386 -173 530 l-24 85 -152 3
c-127 2 -151 0 -151 -12z"/>
<path d="M1150 1200 l0 -250 1075 0 1075 0 0 250 0 250 -1075 0 -1075 0 0
-250z"/>
<path d="M1340 467 c32 -29 767 -446 805 -456 55 -15 125 -14 173 3 44 16 767
428 792 452 12 12 -118 14 -885 14 -755 0 -897 -2 -885 -13z"/>
</g>
</svg>
